<?xml version="1.0" encoding="UTF-8"?>
<svg width="640" height="480" xmlns="http://www.w3.org/2000/svg">
 <title>curly frame</title>
 <g>
  <title>Layer 1</title>
  <g display="inline" id="layer2">
   <path fill="#000000" fill-rule="evenodd" stroke-miterlimit="4" id="path7339" d="m58.110561,37.793396l11.283932,-2.219166c16.659798,-18.853794 64.551506,-28.635544 102.019447,5.337208l7.368637,-3.314678c-31.656891,-30.717623 -89.848534,-36.514854 -120.672016,0.196636zm-7.911133,34.942253l-1.328499,-6.82119c-53.96688,-18.173294 -16.94446,-61.539928 16.857807,-44.104675l6.417618,-4.28212c-45.785526,-25.895083 -96.012394,33.667442 -21.946926,55.207985zm140.648899,-25.36335l-5.588318,2.949425c86.527313,60.194336 132.31073,-59.500849 219.343506,-10.870926c-86.120941,-56.113049 -132.739868,61.513824 -213.755188,7.921501zm-61.116806,14.438538l1.165527,5.835335c44.065125,-5.014236 95.566849,-64.344532 156.65477,-26.162968l5.182007,-3.572681c-64.679443,-44.046749 -124.335739,18.870857 -163.002304,23.900314zm-43.99704,-34.720007l-5.518158,3.904585c11.387093,9.337185 11.634628,18.904751 13.2705,34.087143l8.193718,-1.193024c-1.00872,-13.608097 -2.852959,-26.785702 -15.94606,-36.798704zm13.831627,12.087294l1.825653,5.635494c15.506622,4.042122 20.55246,14.745487 16.521523,34.525784l7.158226,-0.314842c4.230965,-20.764393 0.649803,-35.354343 -25.505402,-39.846436zm-45.331707,15.5159c-3.797752,11.367188 -1.557465,37.008934 34.276714,37.145546l1.316124,-5.842819c-29.146362,-0.914459 -30.86264,-20.950348 -25.167053,-34.972656l-10.425785,3.66993zm-30.082897,9.504471c-42.103302,62.869087 117.427109,80.239281 33.536163,175.818932l2.560036,5.645615c94.13102,-98.409119 -64.931073,-123.098503 -29.117517,-176.970055l-6.978682,-4.494492zm89.262718,0.423813c-13.617088,3.928207 -31.15152,5.039597 -45.577217,4.706871l1.361504,5.096695c10.863098,1.146461 35.545425,-1.44223 44.941811,-4.159798l-0.726097,-5.643768zm-19.172386,12.469765c-0.208374,18.861664 1.303696,37.371277 -28.12114,57.164368l4.377403,4.803833c29.678642,-18.533882 31.322746,-35.584312 31.112289,-62.924156l-7.368553,0.955956zm10.784683,7.865356l0.486847,6.200584c49.630768,-10.815163 52.335129,10.827705 43.687576,18.210129c-8.645508,7.382401 -28.469727,1.637375 -25.771523,-17.163315l-6.914734,0.332039c-4.385681,22.62204 23.477562,33.803139 38.98835,21.687279c15.426147,-12.050995 3.952423,-41.940063 -50.476517,-29.266716zm-51.186131,57.33255c-63.258069,48.86438 17.761372,117.676575 17.210598,156.402313c-0.548752,38.490936 -33.065861,53.912384 -34.008591,87.209869c-0.942703,33.374908 27.139191,59.423279 25.961292,69.864777c-1.177902,10.442841 -18.258503,11.666138 -17.955265,-2.162476c-3.808064,17.514526 21.212547,16.331268 20.754585,0.837799c-0.457977,-15.480133 -24.498692,-34.627533 -23.760197,-67.560883c0.755009,-33.525665 32.909069,-43.556244 34.703747,-88.189087c1.792664,-44.631516 -77.630122,-104.30957 -17.35498,-152.525604l-5.551189,-3.876709zm29.93848,-103.231247c-19.985096,0.044426 -38.60051,6.80785 -48.502281,15.609684l6.745571,4.277176c8.199947,-6.327599 22.22752,-14.5079 44.424091,-13.904781l-2.667381,-5.982079l0,0zm526.802734,13.857422c-18.621521,-0.8251 -46.340393,-19.761871 -110.528778,-19.353115c-64.190582,0.408745 -139.743408,47.583294 -192.447815,13.781116l-4.164948,3.960751c56.543427,37.477192 133.886841,-12.995239 196.612762,-13.33168c62.725739,-0.336449 86.989349,16.224003 109.887177,17.555363c22.900024,1.331509 27.53125,-19.947018 -2.048401,-17.604855c25.569336,1.237049 21.311646,15.817654 2.690002,14.99242zm-563.736412,196.695648c0,0 -15.341614,20.255966 -16.750568,31.762009c-1.413042,11.526093 -2.298019,22.358429 9.827557,32.182281c-7.218021,-10.314728 -7.645027,-14.351501 -6.312397,-28.336212c1.330547,-13.983398 16.707241,-30.111847 16.707241,-30.111847l-3.471832,-5.496231z" stroke="#66ba12"/>
  </g>
 </g>
</svg>